<svg width="1200" height="630" viewBox="0 0 1200 630" xmlns="http://www.w3.org/2000/svg">
  <style>
    @import url('https://fonts.googleapis.com/css2?family=Spectral:ital,wght@0,600;0,700;1,600&amp;family=Libre+Franklin:wght@500;600&amp;display=swap');
    .serif{font-family:'Spectral',Georgia,serif}
    .sans{font-family:'Libre Franklin',system-ui,sans-serif}
  </style>
  <rect width="1200" height="630" fill="#15315E"/>
  <path d="M980 -20 C 900 110, 1045 205, 945 325 C 860 430, 1015 505, 925 660 L1200 660 L1200 -20 Z" fill="#0F2749" opacity="0.55"/>
  <path d="M980 -20 C 900 110, 1045 205, 945 325 C 860 430, 1015 505, 925 660" fill="none" stroke="#FFFFFF" stroke-width="2" opacity="0.18"/>
  <circle cx="947" cy="130" r="10" fill="#3D6FE0" stroke="#15315E" stroke-width="3"/>
  <circle cx="982" cy="305" r="10" fill="#5B86E8" stroke="#15315E" stroke-width="3"/>
  <circle cx="942" cy="440" r="10" fill="#3D6FE0" stroke="#15315E" stroke-width="3"/>
  <circle cx="968" cy="575" r="10" fill="#5B86E8" stroke="#15315E" stroke-width="3"/>
  <text x="80" y="124" class="sans" fill="#8FB0F0" font-size="22" font-weight="600" letter-spacing="4">SOUTHEAST WISCONSIN · AGENT MATCHING</text>
  <text x="78" y="245" class="serif" fill="#F7F9FC" font-size="78" font-weight="700">Find a <tspan fill="#7FA6F4" font-style="italic">trusted</tspan> local</text>
  <text x="78" y="333" class="serif" fill="#F7F9FC" font-size="78" font-weight="700">real estate agent.</text>
  <text x="80" y="406" class="sans" fill="#AEC2DE" font-size="29" font-weight="500">Free for homeowners. No obligation, no pressure.</text>
  <rect x="80" y="486" width="70" height="70" rx="12" fill="#F7F9FC"/>
  <text x="115" y="533" class="serif" fill="#15315E" font-size="30" font-weight="700" text-anchor="middle">RRS</text>
  <text x="168" y="520" class="serif" fill="#FFFFFF" font-size="32" font-weight="700">RRS Realty Group</text>
  <text x="170" y="548" class="sans" fill="#8FB0F0" font-size="15" font-weight="600" letter-spacing="3">RRSREALTYGROUP.COM</text>
</svg>
